<?xml version="1.0" standalone="no"?>
<!DOCTYPE svg PUBLIC "-//W3C//DTD SVG 20010904//EN"
 "http://www.w3.org/TR/2001/REC-SVG-20010904/DTD/svg10.dtd">
<svg version="1.0" xmlns="http://www.w3.org/2000/svg"
 width="221.000000pt" height="221.000000pt" viewBox="0 0 221.000000 221.000000"
 preserveAspectRatio="xMidYMid meet">
<metadata>
Created by potrace 1.11, written by Peter Selinger 2001-2013
</metadata>
<g transform="translate(0.000000,221.000000) scale(0.100000,-0.100000)"
fill="#000000" stroke="none">
<path d="M83 2122 l-33 -3 0 -1019 0 -1019 305 1 305 0 0 104 c0 101 -1 104
-22 105 -13 0 -94 1 -181 1 -86 0 -160 5 -163 10 -7 11 -7 1598 0 1605 3 3 87
6 186 6 l180 0 0 103 c0 92 -2 104 -17 105 -70 2 -535 3 -560 1z"/>
<path d="M1567 2120 c-8 -3 -12 -35 -13 -102 0 -80 3 -99 16 -103 8 -2 83 -4
165 -4 83 0 159 0 171 0 l21 -1 1 -809 2 -808 -181 1 c-110 1 -184 -3 -188 -9
-4 -5 -7 -53 -7 -105 l1 -95 304 0 304 0 1 1008 c1 555 -2 1013 -5 1019 -7 10
-568 18 -592 8z"/>
<path d="M502 1101 l3 -606 100 -1 c55 0 107 2 115 4 14 3 16 37 15 253 l-1
249 31 1 c160 2 719 -1 723 -5 3 -3 5 -117 6 -253 l1 -247 108 -1 107 -1 1 35
c0 60 1 1155 0 1167 -1 9 -164 11 -606 11 l-605 0 2 -606z m989 304 c0 -52 1
-115 1 -140 0 -25 -1 -50 -1 -55 -1 -7 -129 -9 -378 -8 l-378 3 -1 140 c0 77
1 143 3 147 2 3 172 6 378 7 l375 0 1 -94z"/>
</g>
</svg>
